<svg width="65" height="60" viewBox="0 0 65 60" fill="white" xmlns="http://www.w3.org/2000/svg">
<path d="M57.5 20.0001V40.0001C57.4986 40.4713 57.3641 40.9325 57.112 41.3306C56.8599 41.7287 56.5004 42.0474 56.075 42.2501C55.7426 42.4204 55.3734 42.5062 55 42.5001C54.436 42.4968 53.8898 42.303 53.45 41.9501L40.95 31.9501C40.658 31.7158 40.4223 31.419 40.2604 31.0815C40.0985 30.744 40.0144 30.3744 40.0144 30.0001C40.0144 29.6257 40.0985 29.2562 40.2604 28.9186C40.4223 28.5811 40.658 28.2843 40.95 28.0501L53.45 18.0501C53.8158 17.7599 54.2556 17.578 54.7196 17.525C55.1835 17.4719 55.6531 17.5499 56.075 17.7501C56.5004 17.9527 56.8599 18.2714 57.112 18.6695C57.3641 19.0676 57.4986 19.5288 57.5 20.0001Z" fill="#white"/>
<path d="M31.25 15H13.75C12.0924 15 10.5027 15.6585 9.33058 16.8306C8.15848 18.0027 7.5 19.5924 7.5 21.25V38.75C7.5 40.4076 8.15848 41.9973 9.33058 43.1694C10.5027 44.3415 12.0924 45 13.75 45H31.25C32.9076 45 34.4973 44.3415 35.6694 43.1694C36.8415 41.9973 37.5 40.4076 37.5 38.75V21.25C37.5 19.5924 36.8415 18.0027 35.6694 16.8306C34.4973 15.6585 32.9076 15 31.25 15V15ZM27.5 27.5C27.0055 27.5 26.5222 27.3534 26.1111 27.0787C25.7 26.804 25.3795 26.4135 25.1903 25.9567C25.0011 25.4999 24.9516 24.9972 25.048 24.5123C25.1445 24.0273 25.3826 23.5819 25.7322 23.2322C26.0819 22.8826 26.5273 22.6445 27.0123 22.548C27.4972 22.4516 27.9999 22.5011 28.4567 22.6903C28.9135 22.8795 29.304 23.2 29.5787 23.6111C29.8534 24.0222 30 24.5055 30 25C30 25.663 29.7366 26.2989 29.2678 26.7678C28.7989 27.2366 28.163 27.5 27.5 27.5Z" fill="#white"/>
</svg>
