<svg width="65" height="60" viewBox="0 0 65 60" fill="none" xmlns="http://www.w3.org/2000/svg">
<path d="M25 22.5C25 18.25 28.25 15 32.5 15C36.75 15 40 18.25 40 22.5C40 26.75 36.75 30 32.5 30C28.25 30 25 26.75 25 22.5ZM32.5 35C21 35 17.5 43.25 17.5 43.25V47.5H47.5V43.25C47.5 43.25 44 35 32.5 35Z" fill="white"/>
<path d="M48.75 27.5C52.2018 27.5 55 24.7018 55 21.25C55 17.7982 52.2018 15 48.75 15C45.2982 15 42.5 17.7982 42.5 21.25C42.5 24.7018 45.2982 27.5 48.75 27.5Z" fill="white"/>
<path d="M48.75 32.5C45.75 32.5 43.5 33.25 41.75 34.5C47.5 37.25 49.75 42 49.75 42.5V42.75H60V39.5C60 39.25 57.25 32.5 48.75 32.5Z" fill="white"/>
<path d="M48.75 27.5C52.2018 27.5 55 24.7018 55 21.25C55 17.7982 52.2018 15 48.75 15C45.2982 15 42.5 17.7982 42.5 21.25C42.5 24.7018 45.2982 27.5 48.75 27.5Z" fill="white"/>
<path d="M48.75 32.5C45.75 32.5 43.5 33.25 41.75 34.5C47.5 37.25 49.75 42 49.75 42.5V42.75H60V39.5C60 39.25 57.25 32.5 48.75 32.5Z" fill="white"/>
<path d="M16.25 27.5C19.7018 27.5 22.5 24.7018 22.5 21.25C22.5 17.7982 19.7018 15 16.25 15C12.7982 15 10 17.7982 10 21.25C10 24.7018 12.7982 27.5 16.25 27.5Z" fill="white"/>
<path d="M16.25 32.5C19.25 32.5 21.5 33.25 23.25 34.5C17.5 37.25 15.25 42 15.25 42.5V42.75H5V39.5C5 39.25 7.75 32.5 16.25 32.5Z" fill="white"/>
</svg>
